{
  "accessors": [
    {
      "bufferView": 2,
      "componentType": 5126,
      "count": 20579,
      "max": [
        3.0775949954986572,
        3.4861049652099609,
        8.5343570709228516
      ],
      "min": [
        -3.0775949954986572,
        -3.4861049652099609,
        -8.5343570709228516
      ],
      "type": "VEC3"
    },
    {
      "bufferView": 2,
      "byteOffset": 246948,
      "componentType": 5126,
      "count": 20579,
      "max": [
        0.99995136260986328,
        0.99998390674591064,
        0.99933433532714844
      ],
      "min": [
        -0.99993711709976196,
        -0.9999924898147583,
        -0.99999821186065674
      ],
      "type": "VEC3"
    },
    {
      "bufferView": 3,
      "componentType": 5126,
      "count": 20579,
      "max": [
        0.9999886155128479,
        0.99968379735946655,
        0.99999785423278809,
        1
      ],
      "min": [
        -0.99993765354156494,
        -0.99980592727661133,
        -0.99999785423278809,
        -1
      ],
      "type": "VEC4"
    },
    {
      "bufferView": 1,
      "componentType": 5126,
      "count": 20579,
      "max": [
        0.99951201677322388,
        0.99951201677322388
      ],
      "min": [
        0.00048799999058246613,
        0.00048799999058246613
      ],
      "type": "VEC2"
    },
    {
      "bufferView": 0,
      "componentType": 5125,
      "count": 105072,
      "max": [
        20578
      ],
      "min": [
        0
      ],
      "type": "SCALAR"
    }
  ],
  "asset": {
    "extras": {
      "author": "Spogna (https://sketchfab.com/spogna)",
      "license": "CC-BY-NC-4.0 (http://creativecommons.org/licenses/by-nc/4.0/)",
      "source": "https://sketchfab.com/3d-models/used-canguro-shoes-free-6002f2744c4c488e81a30d3807337bfa",
      "title": "Used Canguro shoes  ▆ ▇ █ FREE █ ▇ ▆"
    },
    "generator": "Sketchfab-7.39.0",
    "version": "2.0"
  },
  "bufferViews": [
    {
      "buffer": 0,
      "byteLength": 420288,
      "byteOffset": 0,
      "name": "floatBufferViews",
      "target": 34963
    },
    {
      "buffer": 0,
      "byteLength": 164632,
      "byteOffset": 420288,
      "byteStride": 8,
      "name": "floatBufferViews",
      "target": 34962
    },
    {
      "buffer": 0,
      "byteLength": 493896,
      "byteOffset": 584920,
      "byteStride": 12,
      "name": "floatBufferViews",
      "target": 34962
    },
    {
      "buffer": 0,
      "byteLength": 329264,
      "byteOffset": 1078816,
      "byteStride": 16,
      "name": "floatBufferViews",
      "target": 34962
    }
  ],
  "buffers": [
    {
      "byteLength": 1408080,
      "uri": "scene.bin"
    }
  ],
  "images": [
    {
      "uri": "textures/canguro_baseColor.jpeg"
    },
    {
      "uri": "textures/canguro_metallicRoughness.png"
    },
    {
      "uri": "textures/canguro_normal.jpeg"
    }
  ],
  "materials": [
    {
      "doubleSided": true,
      "name": "canguro",
      "normalTexture": {
        "index": 2,
        "scale": 1,
        "texCoord": 0
      },
      "occlusionTexture": {
        "index": 1,
        "strength": 1,
        "texCoord": 0
      },
      "pbrMetallicRoughness": {
        "baseColorFactor": [
          1,
          1,
          1,
          1
        ],
        "baseColorTexture": {
          "index": 0,
          "texCoord": 0
        },
        "metallicFactor": 0,
        "metallicRoughnessTexture": {
          "index": 1,
          "texCoord": 0
        },
        "roughnessFactor": 0
      }
    }
  ],
  "meshes": [
    {
      "primitives": [
        {
          "attributes": {
            "NORMAL": 1,
            "POSITION": 0,
            "TANGENT": 2,
            "TEXCOORD_0": 3
          },
          "indices": 4,
          "material": 0,
          "mode": 4
        }
      ]
    }
  ],
  "nodes": [
    {
      "children": [
        1
      ],
      "name": "RootNode (gltf orientation matrix)",
      "rotation": [
        -0.70710678118654746,
        -0,
        -0,
        0.70710678118654757
      ]
    },
    {
      "children": [
        2
      ],
      "matrix": [
        1,
        0,
        0,
        0,
        0,
        2.2204460492503131e-16,
        -1,
        0,
        0,
        1,
        2.2204460492503131e-16,
        0,
        0,
        -4.4107437133789062e-06,
        -5.9604644775390625e-07,
        1
      ],
      "name": "RootNode (model correction matrix)"
    },
    {
      "children": [
        3
      ],
      "name": "canguro.obj.cleaner.materialmerger.gles"
    },
    {
      "mesh": 0,
      "name": ""
    }
  ],
  "samplers": [
    {
      "magFilter": 9729,
      "minFilter": 9987,
      "wrapS": 10497,
      "wrapT": 10497
    }
  ],
  "scene": 0,
  "scenes": [
    {
      "name": "OSG_Scene",
      "nodes": [
        0
      ]
    }
  ],
  "textures": [
    {
      "sampler": 0,
      "source": 0
    },
    {
      "sampler": 0,
      "source": 1
    },
    {
      "sampler": 0,
      "source": 2
    }
  ]
}

